<?xml version="1.0" encoding="UTF-8" standalone="no"?>
<svg
   height="974"
   viewBox="0 0 974 974"
   width="974"
   version="1.1"
   id="svg4"
   sodipodi:docname="icon.svg"
   inkscape:version="1.1.1 (3bf5ae0d25, 2021-09-20)"
   xmlns:inkscape="http://www.inkscape.org/namespaces/inkscape"
   xmlns:sodipodi="http://sodipodi.sourceforge.net/DTD/sodipodi-0.dtd"
   xmlns="http://www.w3.org/2000/svg"
   xmlns:svg="http://www.w3.org/2000/svg">
  <defs
     id="defs8" />
  <sodipodi:namedview
     id="namedview6"
     pagecolor="#505050"
     bordercolor="#ffffff"
     borderopacity="1"
     inkscape:pageshadow="0"
     inkscape:pageopacity="0"
     inkscape:pagecheckerboard="1"
     showgrid="false"
     inkscape:zoom="0.67967146"
     inkscape:cx="642.9577"
     inkscape:cy="481.1148"
     inkscape:window-width="1363"
     inkscape:window-height="912"
     inkscape:window-x="64"
     inkscape:window-y="0"
     inkscape:window-maximized="0"
     inkscape:current-layer="svg4" />
  <path
     d="m 840.73735,15.236692 31.31075,6.125488 24.96818,-10e-7 c 2.30224,0 4.60018,0.198761 6.86823,0.59407 l 20.16795,3.51516 c 19.15279,3.338224 33.09244,19.964444 33.13177,39.405931 l 1.4713,727.2844 c 0.0403,19.93612 -30.86467,101.56605 -50.60601,104.34628 -89.88202,12.65837 -165.52136,26.15859 -256.344,37.55809 -91.61177,11.49855 -210.9981,21.60289 -358.30557,30.34554 -7.11908,0.42252 -14.22167,-1.06596 -20.5721,-4.31125 l -12.9986,-6.64273 c -5.03535,-2.57324 -9.36816,-6.1268 -12.81238,-10.36045 -2.43112,-0.67472 -4.79634,-1.59234 -7.0658,-2.7325 L 201.2273,920.91018 C 187.71354,914.12097 179.18423,900.2907 179.18423,885.16737 V 79.889583 c 0,-21.448221 16.91665,-39.079217 38.34654,-39.965811 l 613.8733,-25.39706 c 3.12816,-0.129417 6.2607,0.108874 9.33328,0.70998 z M 592.78461,85.016899 c -72.16544,3.344888 -172.69114,6.80296 -301.5771,10.374214 l 10.29881,733.444977 1.734,-0.103 1.95542,-0.12757 C 426.69543,820.62198 524.23785,812.7444 597.823,804.9728 671.12539,797.23107 779.01118,783.4312 921.48037,763.57321 L 911.18428,69.87734 c -5.94442,0.415879 -11.82764,0.826027 -17.64964,1.230442 l -0.002,-4.583638 C 761.1959,75.693327 660.94645,81.857578 592.78461,85.016899 Z m -320.80571,4.856246 -0.56109,0.01543 c -1.28319,0.03569 -2.56921,0.07139 -3.85807,0.107104 l -5.1e-4,814.625841 h 3.648 l 2.8e-4,-809.23041 c 0,-1.912813 0.26891,-3.764248 0.77139,-5.517968 z M 251.14462,78.567642 219.18423,79.889583 V 885.16737 l 28.375,14.25516 5.1e-4,-809.426848 c 0,-4.243722 1.32361,-8.185335 3.58488,-11.42804 z m -18.3281,693.593978 c 4.21971,0 7.64045,8.13553 7.64045,18.17121 0,10.03569 -3.42074,18.17122 -7.64045,18.17122 -4.2197,0 -7.64044,-8.13553 -7.64044,-18.17122 0,-10.03568 3.42074,-18.17121 7.64044,-18.17121 z m 0,-53.55727 c 4.21971,0 7.64045,8.13553 7.64045,18.17122 0,10.03568 -3.42074,18.17121 -7.64045,18.17121 -4.2197,0 -7.64044,-8.13553 -7.64044,-18.17121 0,-10.03569 3.42074,-18.17122 7.64044,-18.17122 z m 0,-55.47002 c 4.21971,0 7.64045,8.13553 7.64045,18.17122 0,10.03568 -3.42074,18.17121 -7.64045,18.17121 -4.2197,0 -7.64044,-8.13553 -7.64044,-18.17121 0,-10.03569 3.42074,-18.17122 7.64044,-18.17122 z"
     id="path2"
     sodipodi:nodetypes="scsssssssssscssssscssccccsccccsccccccscccccccsssssssssssssss" />
  <path
     style="color:#000000;fill:#000000;-inkscape-stroke:none"
     d="m 176.06648,197.05118 c 0,0 -122.719965,53.96167 -126.53172,201.56711 -3.811755,160.84713 130.45284,254.74178 130.45284,254.74178 0,0 36.31507,-50.26706 -0.1705,-50.66373 C 125.67594,534.61992 96.708095,494.20832 90.238343,398.82423 104.36678,312.26793 137.07385,278.20372 174.94718,249.54362 c 36.40203,-2.17672 1.1193,-52.49244 1.1193,-52.49244 z"
     id="path76"
     sodipodi:nodetypes="ccccccc" />
</svg>
